<svg width="526" height="172" viewBox="0 0 526 172" fill="none" xmlns="http://www.w3.org/2000/svg">
<path d="M31.4102 3C31.4102 1.5 31.9102 1 33.4102 1H41.4102C42.9102 1 43.4102 1.5 43.4102 3V51.5C43.4102 66.5 37.9102 71.5 27.9102 71.5C17.9102 71.5 12.4102 66.6 12.4102 51.5V3C12.4102 1.5 12.9102 1 14.4102 1H22.4102C23.9102 1 24.4102 1.5 24.4102 3V51.9C24.4102 56.9 24.4102 60.1 27.9102 60.1C31.4102 60.1 31.4102 56.9 31.4102 51.9V3Z" fill="#FBF3DD"/>
<path d="M59.9219 18.8C59.9219 22.6 63.0219 26.7 68.3219 32.9C77.9219 44.2 78.8219 47.9 78.8219 55.8C78.8219 64.8 73.8219 71.5 63.8219 71.5C53.1219 71.5 47.9219 64.3 47.9219 53.5C47.9219 52 48.4219 51 49.9219 51H57.8219C59.3219 51 59.8219 51.5 59.8219 53C59.8219 56 59.8219 60.1 63.3219 60.1C66.8219 60.1 66.8219 56.9 66.8219 53.2C66.8219 49.4 63.8219 45.3 58.5219 39.1C48.9219 27.8 47.9219 24.1 47.9219 16.2C47.9219 7.2 52.9219 0.5 62.9219 0.5C73.6219 0.5 78.8219 7.7 78.8219 18.5C78.8219 20 78.3219 21 76.8219 21H68.9219C67.4219 21 66.9219 20.5 66.9219 19C66.9219 16 66.9219 11.9 63.4219 11.9C59.9219 11.9 59.9219 15.1 59.9219 18.8Z" fill="#FBF3DD"/>
<path d="M102.309 3C102.309 1.5 102.809 1 104.309 1H112.309C113.809 1 114.309 1.5 114.309 3V51.5C114.309 66.5 108.809 71.5 98.8086 71.5C88.8086 71.5 83.3086 66.6 83.3086 51.5V3C83.3086 1.5 83.8086 1 85.3086 1H93.3086C94.8086 1 95.3086 1.5 95.3086 3V51.9C95.3086 56.9 95.3086 60.1 98.8086 60.1C102.309 60.1 102.309 56.9 102.309 51.9V3Z" fill="#FBF3DD"/>
<path d="M150.267 71H141.967C140.667 71 140.067 71 139.767 69.5L138.567 61.6C138.167 59.6 138.167 59.6 136.367 59.6H132.567C130.767 59.6 130.767 59.6 130.367 61.6L129.167 69.5C128.867 71 128.267 71 126.967 71H118.667C117.667 71 116.667 71 116.967 69.3L128.567 2.8C128.867 1.3 129.167 1 130.767 1H138.167C139.767 1 140.067 1.3 140.367 2.8L151.967 69.3C152.267 71 151.267 71 150.267 71ZM134.067 34.4L132.067 47.7C131.767 49.7 131.767 49.7 133.767 49.7H135.167C137.167 49.7 137.167 49.7 136.867 47.7L134.867 34.4C134.767 33.9 134.167 33.9 134.067 34.4Z" fill="#FBF3DD"/>
<path d="M158.551 71C157.051 71 156.551 70.5 156.551 69V3C156.551 1.5 157.051 1 158.551 1H166.551C168.051 1 168.551 1.5 168.551 3V57.5C168.551 59.6 168.551 59.6 170.651 59.6H179.651C181.151 59.6 181.651 60.1 181.651 61.6V69C181.651 70.5 181.151 71 179.651 71H158.551Z" fill="#FBF3DD"/>
<path d="M188.141 71C186.641 71 186.141 70.5 186.141 69V3C186.141 1.5 186.641 1 188.141 1H196.141C197.641 1 198.141 1.5 198.141 3V57.5C198.141 59.6 198.141 59.6 200.241 59.6H209.241C210.741 59.6 211.241 60.1 211.241 61.6V69C211.241 70.5 210.741 71 209.241 71H188.141Z" fill="#FBF3DD"/>
<path d="M238.099 3C235.999 12.4 228.499 45.2 228.499 46.7V69C228.499 71 227.499 71 226.499 71H218.499C217.499 71 216.499 71 216.499 69V46.7C216.499 45.7 207.299 3 207.299 3C207.099 1.8 207.499 1 208.799 1H215.699C217.699 1 218.099 1.5 218.499 3L222.199 20.6C222.299 21.2 222.999 21.2 223.099 20.6L226.899 3C227.299 1.5 227.699 1 229.699 1H236.599C237.899 1 238.299 1.8 238.099 3Z" fill="#FBF3DD"/>
<path d="M261.703 3C261.703 2 261.703 1 263.703 1H289.703C291.203 1 291.703 1.5 291.703 3V9.9C291.703 11.4 291.203 11.9 289.703 11.9H284.703C282.703 11.9 282.703 11.9 282.703 13.9V69C282.703 71 281.703 71 280.703 71H272.703C271.703 71 270.703 71 270.703 69V13.9C270.703 11.9 270.703 11.9 268.803 11.9H263.703C261.703 11.9 261.703 10.9 261.703 9.9V3Z" fill="#FBF3DD"/>
<path d="M317.688 71C316.687 71 315.688 71 315.688 69V41.8C315.688 39.8 315.688 39.8 313.688 39.8H310.688C308.688 39.8 308.688 39.8 308.688 41.8V69C308.688 71 307.687 71 306.688 71H298.688C297.688 71 296.688 71 296.688 69V3C296.688 1.5 297.188 1 298.688 1H306.688C308.188 1 308.688 1.5 308.688 3V26.4C308.688 28.4 308.688 28.4 310.688 28.4H313.688C315.688 28.4 315.688 28.4 315.688 26.4V3C315.688 1.5 316.188 1 317.688 1H325.688C327.187 1 327.688 1.5 327.688 3V69C327.688 71 326.687 71 325.688 71H317.688Z" fill="#FBF3DD"/>
<path d="M335.699 71C334.699 71 333.699 71 333.699 69V3C333.699 1.5 334.199 1 335.699 1H357.299C358.799 1 359.299 1.5 359.299 3V10.4C359.299 11.9 358.799 12.4 357.299 12.4H347.699C345.699 12.4 345.699 12.4 345.699 14.4V26.4C345.699 28.4 345.699 28.4 347.699 28.4H357.299C358.799 28.4 359.299 28.9 359.299 30.4V37.8C359.299 39.3 358.799 39.8 357.299 39.8H347.699C345.699 39.8 345.699 39.8 345.699 41.8V57.6C345.699 59.6 345.699 59.6 347.699 59.6H357.299C358.799 59.6 359.299 60.1 359.299 61.6V69C359.299 70.5 358.799 71 357.299 71H335.699Z" fill="#FBF3DD"/>
<path d="M416.359 27.8C416.359 42.7 409.359 47.7 399.359 47.7C397.359 47.7 397.359 47.7 397.359 49.7V69C397.359 70.5 396.759 71 395.359 71H387.359C385.759 71 385.359 70.5 385.359 69V3C385.359 1.5 385.859 1 387.359 1H399.359C409.359 1 416.359 6 416.359 21V27.8ZM397.359 13.9V35C397.359 36.8 397.359 36.8 399.359 36.8C404.359 36.8 404.359 31.7 404.359 26.6V22.1C404.359 17 404.359 11.9 399.359 11.9C397.359 11.9 397.359 11.9 397.359 13.9Z" fill="#FBF3DD"/>
<path d="M449.291 71H440.991C439.691 71 439.091 71 438.791 69.5L437.591 61.6C437.191 59.6 437.191 59.6 435.391 59.6H431.591C429.791 59.6 429.791 59.6 429.391 61.6L428.191 69.5C427.891 71 427.291 71 425.991 71H417.691C416.691 71 415.691 71 415.991 69.3L427.591 2.8C427.891 1.3 428.191 1 429.791 1H437.191C438.791 1 439.091 1.3 439.391 2.8L450.991 69.3C451.291 71 450.291 71 449.291 71ZM433.091 34.4L431.091 47.7C430.791 49.7 430.791 49.7 432.791 49.7H434.191C436.191 49.7 436.191 49.7 435.891 47.7L433.891 34.4C433.791 33.9 433.191 33.9 433.091 34.4Z" fill="#FBF3DD"/>
<path d="M449.594 3C449.594 2 449.594 1 451.594 1H477.594C479.094 1 479.594 1.5 479.594 3V9.9C479.594 11.4 479.094 11.9 477.594 11.9H472.594C470.594 11.9 470.594 11.9 470.594 13.9V69C470.594 71 469.594 71 468.594 71H460.594C459.594 71 458.594 71 458.594 69V13.9C458.594 11.9 458.594 11.9 456.694 11.9H451.594C449.594 11.9 449.594 10.9 449.594 9.9V3Z" fill="#FBF3DD"/>
<path d="M505.578 71C504.578 71 503.578 71 503.578 69V41.8C503.578 39.8 503.578 39.8 501.578 39.8H498.578C496.578 39.8 496.578 39.8 496.578 41.8V69C496.578 71 495.578 71 494.578 71H486.578C485.578 71 484.578 71 484.578 69V3C484.578 1.5 485.078 1 486.578 1H494.578C496.078 1 496.578 1.5 496.578 3V26.4C496.578 28.4 496.578 28.4 498.578 28.4H501.578C503.578 28.4 503.578 28.4 503.578 26.4V3C503.578 1.5 504.078 1 505.578 1H513.578C515.078 1 515.578 1.5 515.578 3V69C515.578 71 514.578 71 513.578 71H505.578Z" fill="#FBF3DD"/>
<path d="M12.7051 118.8C12.7051 122.6 15.8051 126.7 21.1051 132.9C30.7051 144.2 31.6051 147.9 31.6051 155.8C31.6051 164.8 26.6051 171.5 16.6051 171.5C5.90507 171.5 0.705078 164.3 0.705078 153.5C0.705078 152 1.20508 151 2.70508 151H10.6051C12.1051 151 12.6051 151.5 12.6051 153C12.6051 156 12.6051 160.1 16.1051 160.1C19.6051 160.1 19.6051 156.9 19.6051 153.2C19.6051 149.4 16.6051 145.3 11.3051 139.1C1.70508 127.8 0.705078 124.1 0.705078 116.2C0.705078 107.2 5.70508 100.5 15.7051 100.5C26.4051 100.5 31.6051 107.7 31.6051 118.5C31.6051 120 31.1051 121 29.6051 121H21.7051C20.2051 121 19.7051 120.5 19.7051 119C19.7051 116 19.7051 111.9 16.2051 111.9C12.7051 111.9 12.7051 115.1 12.7051 118.8Z" fill="#FBF3DD"/>
<path d="M38.0918 171C37.0918 171 36.0918 171 36.0918 169V103C36.0918 101.5 36.5918 101 38.0918 101H59.6918C61.1918 101 61.6918 101.5 61.6918 103V110.4C61.6918 111.9 61.1918 112.4 59.6918 112.4H50.0918C48.0918 112.4 48.0918 112.4 48.0918 114.4V126.4C48.0918 128.4 48.0918 128.4 50.0918 128.4H59.6918C61.1918 128.4 61.6918 128.9 61.6918 130.4V137.8C61.6918 139.3 61.1918 139.8 59.6918 139.8H50.0918C48.0918 139.8 48.0918 139.8 48.0918 141.8V157.6C48.0918 159.6 48.0918 159.6 50.0918 159.6H59.6918C61.1918 159.6 61.6918 160.1 61.6918 161.6V169C61.6918 170.5 61.1918 171 59.6918 171H38.0918Z" fill="#FBF3DD"/>
<path d="M69.7324 171C68.7324 171 67.7324 171 67.7324 169V103C67.7324 101.5 68.2324 101 69.7324 101H91.3324C92.8324 101 93.3324 101.5 93.3324 103V110.4C93.3324 111.9 92.8324 112.4 91.3324 112.4H81.7324C79.7324 112.4 79.7324 112.4 79.7324 114.4V126.4C79.7324 128.4 79.7324 128.4 81.7324 128.4H91.3324C92.8324 128.4 93.3324 128.9 93.3324 130.4V137.8C93.3324 139.3 92.8324 139.8 91.3324 139.8H81.7324C79.7324 139.8 79.7324 139.8 79.7324 141.8V157.6C79.7324 159.6 79.7324 159.6 81.7324 159.6H91.3324C92.8324 159.6 93.3324 160.1 93.3324 161.6V169C93.3324 170.5 92.8324 171 91.3324 171H69.7324Z" fill="#FBF3DD"/>
<path d="M137.573 171H129.573C128.373 171 127.573 170.5 127.573 169V141.4C127.573 140.9 127.073 140.9 126.973 141.3L123.773 150.5C123.373 151.9 122.573 151.9 121.273 151.9H117.373C116.373 151.9 115.573 151.9 115.173 150.5L111.973 141.3C111.873 140.9 111.373 140.9 111.373 141.4V169C111.373 170.5 110.873 171 109.373 171H101.373C99.873 171 99.373 170.5 99.373 169V103C99.373 101.5 99.873 101 101.373 101H108.373C109.573 101 109.973 101.3 110.273 102.2L119.073 128.4C119.173 128.8 119.773 128.8 119.873 128.4L128.673 102C128.973 101.2 129.473 101 130.573 101H137.573C139.073 101 139.573 101.5 139.573 103V169C139.573 170.5 138.973 171 137.573 171Z" fill="#FBF3DD"/>
<path d="M156.064 118.8C156.064 122.6 159.164 126.7 164.464 132.9C174.064 144.2 174.964 147.9 174.964 155.8C174.964 164.8 169.964 171.5 159.964 171.5C149.264 171.5 144.064 164.3 144.064 153.5C144.064 152 144.564 151 146.064 151H153.964C155.464 151 155.964 151.5 155.964 153C155.964 156 155.964 160.1 159.464 160.1C162.964 160.1 162.964 156.9 162.964 153.2C162.964 149.4 159.964 145.3 154.664 139.1C145.064 127.8 144.064 124.1 144.064 116.2C144.064 107.2 149.064 100.5 159.064 100.5C169.764 100.5 174.964 107.7 174.964 118.5C174.964 120 174.464 121 172.964 121H165.064C163.564 121 163.064 120.5 163.064 119C163.064 116 163.064 111.9 159.564 111.9C156.064 111.9 156.064 115.1 156.064 118.8Z" fill="#FBF3DD"/>
<path d="M223.371 101H231.371C232.371 101 233.371 101 233.071 102.7L220.971 169.2C220.671 170.7 220.371 171 218.771 171H212.371C210.771 171 210.471 170.7 210.171 169.2L198.071 102.7C197.771 101 198.771 101 199.771 101H207.771C209.071 101 209.671 101 209.971 102.5L215.171 132C215.271 132.5 215.871 132.5 215.971 132L221.171 102.5C221.471 101 222.071 101 223.371 101Z" fill="#FBF3DD"/>
<path d="M239.654 171C238.654 171 237.654 171 237.654 169V103C237.654 101.5 238.154 101 239.654 101H261.254C262.754 101 263.254 101.5 263.254 103V110.4C263.254 111.9 262.754 112.4 261.254 112.4H251.654C249.654 112.4 249.654 112.4 249.654 114.4V126.4C249.654 128.4 249.654 128.4 251.654 128.4H261.254C262.754 128.4 263.254 128.9 263.254 130.4V137.8C263.254 139.3 262.754 139.8 261.254 139.8H251.654C249.654 139.8 249.654 139.8 249.654 141.8V157.6C249.654 159.6 249.654 159.6 251.654 159.6H261.254C262.754 159.6 263.254 160.1 263.254 161.6V169C263.254 170.5 262.754 171 261.254 171H239.654Z" fill="#FBF3DD"/>
<path d="M300.295 124.9C300.295 132.7 298.395 137.8 295.195 140.9L300.195 168.9C300.495 170.5 299.595 171 298.795 171H290.695C289.395 171 288.795 171 288.495 169.5L284.195 144.9H283.295C281.295 144.9 281.295 144.9 281.295 146.9V169C281.295 170.5 280.795 171 279.295 171H271.295C269.795 171 269.295 170.5 269.295 169V103C269.295 101.5 269.795 101 271.295 101H283.295C293.295 101 300.295 106 300.295 121V124.9ZM281.295 113.9V132C281.295 134 281.295 134 283.295 134C288.295 134 288.295 128.9 288.295 123.8V122.1C288.295 117 288.295 111.9 283.295 111.9C281.295 111.9 281.295 111.9 281.295 113.9Z" fill="#FBF3DD"/>
<path d="M333.754 103C331.654 112.4 324.154 145.2 324.154 146.7V169C324.154 171 323.154 171 322.154 171H314.154C313.154 171 312.154 171 312.154 169V146.7C312.154 145.7 302.954 103 302.954 103C302.754 101.8 303.154 101 304.454 101H311.354C313.354 101 313.754 101.5 314.154 103L317.854 120.6C317.954 121.2 318.654 121.2 318.754 120.6L322.554 103C322.954 101.5 323.354 101 325.354 101H332.254C333.554 101 333.954 101.8 333.754 103Z" fill="#FBF3DD"/>
<path d="M370.357 120V151.9C370.357 156.9 370.357 160.1 373.857 160.1C377.357 160.1 377.357 156.9 377.357 151.9V149C377.357 147.5 377.857 147 379.357 147H387.357C388.857 147 389.357 147.5 389.357 149V151.5C389.357 166.5 383.857 171.5 373.857 171.5C363.857 171.5 358.357 166.6 358.357 151.5V120.4C358.357 105.3 363.857 100.4 373.857 100.4C383.857 100.4 389.357 105.4 389.357 120.4V123C389.357 124.5 388.857 125 387.357 125H379.357C377.857 125 377.357 124.5 377.357 123V120C377.357 115 377.357 111.8 373.857 111.8C370.357 111.8 370.357 115 370.357 120Z" fill="#FBF3DD"/>
<path d="M397.369 171C395.869 171 395.369 170.5 395.369 169V103C395.369 101.5 395.869 101 397.369 101H405.369C406.869 101 407.369 101.5 407.369 103V157.5C407.369 159.6 407.369 159.6 409.469 159.6H418.469C419.969 159.6 420.469 160.1 420.469 161.6V169C420.469 170.5 419.969 171 418.469 171H397.369Z" fill="#FBF3DD"/>
<path d="M426.959 171C425.959 171 424.959 171 424.959 169V103C424.959 101.5 425.459 101 426.959 101H448.559C450.059 101 450.559 101.5 450.559 103V110.4C450.559 111.9 450.059 112.4 448.559 112.4H438.959C436.959 112.4 436.959 112.4 436.959 114.4V126.4C436.959 128.4 436.959 128.4 438.959 128.4H448.559C450.059 128.4 450.559 128.9 450.559 130.4V137.8C450.559 139.3 450.059 139.8 448.559 139.8H438.959C436.959 139.8 436.959 139.8 436.959 141.8V157.6C436.959 159.6 436.959 159.6 438.959 159.6H448.559C450.059 159.6 450.559 160.1 450.559 161.6V169C450.559 170.5 450.059 171 448.559 171H426.959Z" fill="#FBF3DD"/>
<path d="M488.5 171H480.2C478.9 171 478.3 171 478 169.5L476.8 161.6C476.4 159.6 476.4 159.6 474.6 159.6H470.8C469 159.6 469 159.6 468.6 161.6L467.4 169.5C467.1 171 466.5 171 465.2 171H456.9C455.9 171 454.9 171 455.2 169.3L466.8 102.8C467.1 101.3 467.4 101 469 101H476.4C478 101 478.3 101.3 478.6 102.8L490.2 169.3C490.5 171 489.5 171 488.5 171ZM472.3 134.4L470.3 147.7C470 149.7 470 149.7 472 149.7H473.4C475.4 149.7 475.4 149.7 475.1 147.7L473.1 134.4C473 133.9 472.4 133.9 472.3 134.4Z" fill="#FBF3DD"/>
<path d="M525.783 124.9C525.783 132.7 523.883 137.8 520.683 140.9L525.683 168.9C525.983 170.5 525.083 171 524.283 171H516.183C514.883 171 514.283 171 513.983 169.5L509.683 144.9H508.783C506.783 144.9 506.783 144.9 506.783 146.9V169C506.783 170.5 506.283 171 504.783 171H496.783C495.283 171 494.783 170.5 494.783 169V103C494.783 101.5 495.283 101 496.783 101H508.783C518.783 101 525.783 106 525.783 121V124.9ZM506.783 113.9V132C506.783 134 506.783 134 508.783 134C513.783 134 513.783 128.9 513.783 123.8V122.1C513.783 117 513.783 111.9 508.783 111.9C506.783 111.9 506.783 111.9 506.783 113.9Z" fill="#FBF3DD"/>
</svg>
