<svg width="411" height="73" viewBox="0 0 411 73" fill="none" xmlns="http://www.w3.org/2000/svg">
<path d="M19.9688 4.0001C19.9688 2.5001 20.4688 2.0001 21.9688 2.0001H29.9688C31.4687 2.0001 31.9688 2.5001 31.9688 4.0001V52.5001C31.9688 67.5001 26.4688 72.5001 16.4688 72.5001C6.46875 72.5001 0.96875 67.6001 0.96875 52.5001V4.0001C0.96875 2.5001 1.46875 2.0001 2.96875 2.0001H10.9688C12.4688 2.0001 12.9688 2.5001 12.9688 4.0001V52.9001C12.9688 57.9001 12.9688 61.1001 16.4688 61.1001C19.9688 61.1001 19.9688 57.9001 19.9688 52.9001V4.0001Z" fill="#FBF3DD"/>
<path d="M62.4805 72.0001C61.5805 72.0001 60.8805 71.8001 60.4805 70.8001L50.7805 42.4001C50.5805 41.7001 49.9805 41.9001 49.9805 42.4001V70.0001C49.9805 71.5001 49.4805 72.0001 47.9805 72.0001H39.9805C38.4805 72.0001 37.9805 71.5001 37.9805 70.0001V4.0001C37.9805 2.5001 38.4805 2.0001 39.9805 2.0001H46.9805C48.0805 2.0001 48.5805 2.2001 48.9805 3.3001L58.6805 32.0001C58.8805 32.6001 59.4805 32.5001 59.4805 32.0001V4.0001C59.4805 2.5001 59.9805 2.0001 61.4805 2.0001H69.4805C70.9805 2.0001 71.4805 2.5001 71.4805 4.0001V70.0001C71.4805 71.5001 70.9805 72.0001 69.4805 72.0001H62.4805Z" fill="#FBF3DD"/>
<path d="M76.4336 4.0001C76.4336 3.0001 76.4336 2.0001 78.4336 2.0001H104.434C105.934 2.0001 106.434 2.5001 106.434 4.0001V10.9001C106.434 12.4001 105.934 12.9001 104.434 12.9001H99.4336C97.4336 12.9001 97.4336 12.9001 97.4336 14.9001V70.0001C97.4336 72.0001 96.4336 72.0001 95.4336 72.0001H87.4336C86.4336 72.0001 85.4336 72.0001 85.4336 70.0001V14.9001C85.4336 12.9001 85.4336 12.9001 83.5336 12.9001H78.4336C76.4336 12.9001 76.4336 11.9001 76.4336 10.9001V4.0001Z" fill="#FBF3DD"/>
<path d="M113.418 72.0001C112.418 72.0001 111.418 72.0001 111.418 70.0001V4.0001C111.418 2.5001 111.918 2.0001 113.418 2.0001H121.418C122.918 2.0001 123.418 2.5001 123.418 4.0001V70.0001C123.418 72.0001 122.418 72.0001 121.418 72.0001H113.418Z" fill="#FBF3DD"/>
<path d="M131.387 72.0001C129.887 72.0001 129.387 71.5001 129.387 70.0001V4.0001C129.387 2.5001 129.887 2.0001 131.387 2.0001H139.387C140.887 2.0001 141.387 2.5001 141.387 4.0001V58.5001C141.387 60.6001 141.387 60.6001 143.487 60.6001H152.487C153.987 60.6001 154.487 61.1001 154.487 62.6001V70.0001C154.487 71.5001 153.987 72.0001 152.487 72.0001H131.387Z" fill="#FBF3DD"/>
<path d="M180.996 72.0001C179.996 72.0001 178.996 72.0001 178.996 70.0001V4.0001C178.996 2.5001 179.496 2.0001 180.996 2.0001H188.996C190.496 2.0001 190.996 2.5001 190.996 4.0001V70.0001C190.996 72.0001 189.996 72.0001 188.996 72.0001H180.996Z" fill="#FBF3DD"/>
<path d="M195.965 4.0001C195.965 3.0001 195.965 2.0001 197.965 2.0001H223.965C225.465 2.0001 225.965 2.5001 225.965 4.0001V10.9001C225.965 12.4001 225.465 12.9001 223.965 12.9001H218.965C216.965 12.9001 216.965 12.9001 216.965 14.9001V70.0001C216.965 72.0001 215.965 72.0001 214.965 72.0001H206.965C205.965 72.0001 204.965 72.0001 204.965 70.0001V14.9001C204.965 12.9001 204.965 12.9001 203.065 12.9001H197.965C195.965 12.9001 195.965 11.9001 195.965 10.9001V4.0001Z" fill="#FBF3DD"/>
<path d="M248.449 1.7001C247.849 4.03343 247.083 6.56676 246.149 9.3001C245.216 11.9668 244.216 14.6668 243.149 17.4001C242.083 20.0668 240.983 22.6334 239.849 25.1001H229.149C229.616 23.1001 230.083 21.0334 230.549 18.9001C231.016 16.7668 231.449 14.6334 231.849 12.5001C232.316 10.3001 232.716 8.2001 233.049 6.2001C233.449 4.2001 233.783 2.33343 234.049 0.600098H247.749L248.449 1.7001Z" fill="#FBF3DD"/>
<path d="M263.129 19.8001C263.129 23.6001 266.229 27.7001 271.529 33.9001C281.129 45.2001 282.029 48.9001 282.029 56.8001C282.029 65.8001 277.029 72.5001 267.029 72.5001C256.329 72.5001 251.129 65.3001 251.129 54.5001C251.129 53.0001 251.629 52.0001 253.129 52.0001H261.029C262.529 52.0001 263.029 52.5001 263.029 54.0001C263.029 57.0001 263.029 61.1001 266.529 61.1001C270.029 61.1001 270.029 57.9001 270.029 54.2001C270.029 50.4001 267.029 46.3001 261.729 40.1001C252.129 28.8001 251.129 25.1001 251.129 17.2001C251.129 8.2001 256.129 1.5001 266.129 1.5001C276.829 1.5001 282.029 8.7001 282.029 19.5001C282.029 21.0001 281.529 22.0001 280.029 22.0001H272.129C270.629 22.0001 270.129 21.5001 270.129 20.0001C270.129 17.0001 270.129 12.9001 266.629 12.9001C263.129 12.9001 263.129 16.1001 263.129 19.8001Z" fill="#FBF3DD"/>
<path d="M331.035 72.0001C330.135 72.0001 329.435 71.8001 329.035 70.8001L319.335 42.4001C319.135 41.7001 318.535 41.9001 318.535 42.4001V70.0001C318.535 71.5001 318.035 72.0001 316.535 72.0001H308.535C307.035 72.0001 306.535 71.5001 306.535 70.0001V4.0001C306.535 2.5001 307.035 2.0001 308.535 2.0001H315.535C316.635 2.0001 317.135 2.2001 317.535 3.3001L327.235 32.0001C327.435 32.6001 328.035 32.5001 328.035 32.0001V4.0001C328.035 2.5001 328.535 2.0001 330.035 2.0001H338.035C339.535 2.0001 340.035 2.5001 340.035 4.0001V70.0001C340.035 71.5001 339.535 72.0001 338.035 72.0001H331.035Z" fill="#FBF3DD"/>
<path d="M376.988 52.5001C376.988 67.5001 371.488 72.5001 361.488 72.5001C351.488 72.5001 345.988 67.6001 345.988 52.5001V21.5001C345.988 6.4001 351.488 1.5001 361.488 1.5001C371.488 1.5001 376.988 6.5001 376.988 21.5001V52.5001ZM364.988 21.2001C364.988 16.1001 364.988 12.9001 361.488 12.9001C357.988 12.9001 357.988 16.1001 357.988 21.2001V52.9001C357.988 57.9001 357.988 61.1001 361.488 61.1001C364.988 61.1001 364.988 57.9001 364.988 52.9001V21.2001Z" fill="#FBF3DD"/>
<path d="M380.047 4.0001C380.047 3.0001 380.047 2.0001 382.047 2.0001H408.047C409.547 2.0001 410.047 2.5001 410.047 4.0001V10.9001C410.047 12.4001 409.547 12.9001 408.047 12.9001H403.047C401.047 12.9001 401.047 12.9001 401.047 14.9001V70.0001C401.047 72.0001 400.047 72.0001 399.047 72.0001H391.047C390.047 72.0001 389.047 72.0001 389.047 70.0001V14.9001C389.047 12.9001 389.047 12.9001 387.147 12.9001H382.047C380.047 12.9001 380.047 11.9001 380.047 10.9001V4.0001Z" fill="#FBF3DD"/>
</svg>
